<svg width="100" height="100" viewBox="0 0 100 100" fill="none" xmlns="http://www.w3.org/2000/svg">
<g clip-path="url(#clip0_99_22)">
<path d="M76.5625 0H23.4375C10.4933 0 0 10.4933 0 23.4375V76.5625C0 89.5067 10.4933 100 23.4375 100H76.5625C89.5067 100 100 89.5067 100 76.5625V23.4375C100 10.4933 89.5067 0 76.5625 0Z" fill="#F34F29"/>
<mask id="mask0_99_22" style="mask-type:luminance" maskUnits="userSpaceOnUse" x="10" y="10" width="80" height="80">
<path d="M10.9375 10.9375H89.0625V89.0625H10.9375V10.9375Z" fill="white"/>
</mask>
<g mask="url(#mask0_99_22)">
<path d="M87.5879 46.5211L53.4789 12.4122C52.7757 11.7081 51.8793 11.2286 50.9033 11.0344C49.9274 10.8402 48.9157 10.94 47.9965 11.3211C47.3864 11.5744 46.832 11.9451 46.3649 12.4122L39.2848 19.4922L48.2692 28.4766C50.359 27.7442 52.7516 28.2446 54.4164 29.9098C55.2091 30.7038 55.7624 31.7047 56.0132 32.7982C56.264 33.8917 56.2022 35.0338 55.8348 36.0938L64.4945 44.7536C66.5895 44.0309 69.0063 44.4969 70.6785 46.1743C71.5163 47.0115 72.0867 48.0786 72.3177 49.2403C72.5486 50.4019 72.4296 51.606 71.9758 52.7001C71.3675 54.1668 70.2016 55.332 68.7345 55.9395C67.2674 56.547 65.6191 56.547 64.152 55.9395C63.4254 55.6383 62.7652 55.1973 62.2094 54.6411C60.4516 52.8833 60.0172 50.2954 60.9059 48.1297L52.8297 40.0536V61.3063C53.416 61.5963 53.9517 61.9788 54.4164 62.4391C55.5392 63.5619 56.17 65.0847 56.17 66.6725C56.17 68.2603 55.5392 69.7831 54.4164 70.9059C53.2937 72.0287 51.7709 72.6594 50.183 72.6594C48.5952 72.6594 47.0724 72.0287 45.9496 70.9059C45.1117 70.0689 44.541 69.0021 44.3097 67.8406C44.0784 66.6791 44.197 65.475 44.6504 64.3809C44.9515 63.6545 45.393 62.9946 45.9496 62.4391C46.5281 61.8629 47.1703 61.4258 47.9102 61.1329V39.6825C47.176 39.3825 46.5094 38.9385 45.9496 38.3766C45.109 37.5369 44.5375 36.4659 44.3079 35.3001C44.0784 34.1344 44.2011 32.9266 44.6606 31.8309L35.7984 22.9743L12.4098 46.3383C11.7057 47.042 11.2261 47.9386 11.0318 48.9149C10.8374 49.8911 10.937 50.9031 11.318 51.8227C11.5713 52.4332 11.9423 52.9879 12.4098 53.4551L46.5211 87.5614C46.9882 88.0285 47.5426 88.3992 48.1527 88.6524C49.3857 89.1622 50.7705 89.1622 52.0035 88.6524C52.6137 88.3992 53.1681 88.0285 53.6352 87.5614L87.5879 53.6626C88.0554 53.1954 88.4263 52.6407 88.6794 52.0302C88.9325 51.4197 89.0628 50.7653 89.0629 50.1043C89.0628 49.4434 88.9326 48.7889 88.6795 48.1783C88.4264 47.5677 88.0555 47.013 87.5879 46.5458" fill="white"/>
</g>
</g>
<defs>
<clipPath id="clip0_99_22">
<rect width="100" height="100" fill="white"/>
</clipPath>
</defs>
</svg>
