<svg width="100" height="100" viewBox="0 0 100 100" fill="none" xmlns="http://www.w3.org/2000/svg">
<g clip-path="url(#clip0_99_16)">
<path d="M76.5625 0H23.4375C10.4933 0 0 10.4933 0 23.4375V76.5625C0 89.5067 10.4933 100 23.4375 100H76.5625C89.5067 100 100 89.5067 100 76.5625V23.4375C100 10.4933 89.5067 0 76.5625 0Z" fill="#E23237"/>
<path d="M13.3789 23.877L49.7363 10.9375L87.0508 23.6766L81.0203 71.7578L49.7363 89.0625L18.9602 71.9824L13.3789 23.877Z" fill="#FF5257"/>
<path d="M87.0508 23.677L49.7363 10.9375V89.0625L81.0203 71.7578L87.0508 23.677Z" fill="#B52E31"/>
<path d="M49.7926 20.0684L27.1364 70.459L35.591 70.2879L40.1563 58.9016H60.4199L65.3809 70.3762L73.4422 70.5469L49.7926 20.0684ZM49.8485 36.2449L57.5145 52.2535H43.1641L49.8707 36.2449H49.8485Z" fill="white"/>
</g>
<defs>
<clipPath id="clip0_99_16">
<rect width="100" height="100" fill="white"/>
</clipPath>
</defs>
</svg>
